<svg width="187" height="105" viewBox="0 0 187 105" fill="none" xmlns="http://www.w3.org/2000/svg">
<g id="Logo">
<path id="Vector" d="M67.1826 46.2735H70.3382V59.01H67.1826V46.2735ZM71.5899 54.201C71.5899 51.051 73.5253 49.1715 76.5126 49.1715C79.4999 49.1715 81.4353 51.051 81.4353 54.201C81.4353 57.351 79.542 59.241 76.5126 59.241C73.4833 59.241 71.5899 57.4035 71.5899 54.201ZM78.2692 54.201C78.2692 52.4685 77.5855 51.45 76.5126 51.45C75.4397 51.45 74.7665 52.5 74.7665 54.201C74.7665 55.902 75.4292 56.931 76.5126 56.931C77.596 56.931 78.2692 55.965 78.2692 54.2115V54.201ZM82.624 59.6295H85.6533C85.7975 59.9492 86.0412 60.2139 86.3483 60.3842C86.6553 60.5545 87.0092 60.6212 87.3573 60.5745C88.5565 60.5745 89.1876 59.9235 89.1876 58.9785V57.2145H89.1245C88.873 57.7552 88.4651 58.2082 87.9532 58.5151C87.4414 58.8221 86.8491 58.9688 86.2529 58.9365C83.9493 58.9365 82.4241 57.183 82.4241 54.1695C82.4241 51.156 83.8757 49.2555 86.2949 49.2555C86.9099 49.2315 87.5175 49.3956 88.0363 49.7259C88.5552 50.0561 88.9606 50.5368 89.1981 51.1035V49.35H92.3537V58.905C92.3537 61.2045 90.3236 62.6325 87.3258 62.6325C84.5383 62.6325 82.8028 61.383 82.624 59.64V59.6295ZM89.1981 54.1905C89.1981 52.6575 88.4933 51.6915 87.3784 51.6915C86.2634 51.6915 85.5797 52.647 85.5797 54.1905C85.5797 55.734 86.2529 56.6055 87.3784 56.6055C88.5039 56.6055 89.1981 55.755 89.1981 54.201V54.1905ZM93.5423 54.1905C93.5423 51.0405 95.4777 49.161 98.465 49.161C101.452 49.161 103.398 51.0405 103.398 54.1905C103.398 57.3405 101.505 59.2305 98.465 59.2305C95.4251 59.2305 93.5423 57.4035 93.5423 54.201V54.1905ZM100.222 54.1905C100.222 52.458 99.5379 51.4395 98.465 51.4395C97.3921 51.4395 96.7715 52.5 96.7715 54.2115C96.7715 55.923 97.4342 56.9415 98.5071 56.9415C99.58 56.9415 100.222 55.965 100.222 54.2115V54.1905ZM104.597 47.061C104.589 46.743 104.676 46.4297 104.846 46.1608C105.016 45.8919 105.263 45.6795 105.554 45.5506C105.845 45.4217 106.169 45.3821 106.483 45.4367C106.797 45.4914 107.087 45.6379 107.318 45.8576C107.548 46.0774 107.708 46.3605 107.777 46.671C107.846 46.9816 107.821 47.3057 107.706 47.6022C107.59 47.8986 107.389 48.1541 107.128 48.3363C106.866 48.5185 106.557 48.6192 106.238 48.6255C106.027 48.64 105.815 48.6107 105.616 48.5395C105.416 48.4683 105.234 48.3568 105.08 48.2118C104.926 48.0669 104.803 47.8917 104.72 47.6973C104.637 47.5028 104.595 47.2934 104.597 47.082V47.061ZM104.597 49.371H107.753V59.01H104.597V49.371ZM119.208 54.1905C119.208 57.3405 117.809 59.136 115.41 59.136C114.796 59.1754 114.183 59.0254 113.657 58.7061C113.13 58.3869 112.714 57.9138 112.465 57.351H112.402V62.097H109.247V49.35H112.402V51.072H112.465C112.702 50.4999 113.11 50.0146 113.633 49.682C114.157 49.3495 114.77 49.1859 115.389 49.2135C117.809 49.2555 119.25 51.0615 119.25 54.2115L119.208 54.1905ZM116.052 54.1905C116.052 52.6575 115.347 51.681 114.243 51.681C113.138 51.681 112.434 52.668 112.423 54.1905C112.413 55.713 113.138 56.6895 114.243 56.6895C115.347 56.6895 116.052 55.734 116.052 54.2115V54.1905ZM124.625 49.1505C127.244 49.1505 128.832 50.3895 128.906 52.374H126.034C126.034 51.6915 125.466 51.261 124.593 51.261C123.72 51.261 123.331 51.597 123.331 52.0905C123.331 52.584 123.678 52.7415 124.383 52.8885L126.402 53.298C128.327 53.7075 129.148 54.4845 129.148 55.944C129.148 57.939 127.328 59.22 124.646 59.22C121.964 59.22 120.207 57.939 120.07 55.9755H123.11C123.205 56.6895 123.773 57.1095 124.698 57.1095C125.624 57.1095 126.045 56.805 126.045 56.301C126.045 55.797 125.75 55.692 124.993 55.5345L123.173 55.146C121.29 54.7575 120.302 53.76 120.302 52.29C120.323 50.4 122.016 49.1715 124.625 49.1715V49.1505ZM139.677 58.989H136.637V57.1935H136.574C136.407 57.7963 136.038 58.324 135.529 58.6888C135.02 59.0536 134.402 59.2336 133.776 59.199C133.297 59.2262 132.817 59.1504 132.369 58.9766C131.922 58.8029 131.517 58.5353 131.182 58.1919C130.847 57.8485 130.589 57.4373 130.427 56.9861C130.265 56.5349 130.202 56.0542 130.242 55.5765V49.35H133.397V54.852C133.397 55.9965 133.986 56.6055 134.965 56.6055C135.194 56.606 135.421 56.5575 135.63 56.4633C135.839 56.3691 136.025 56.2314 136.177 56.0594C136.328 55.8874 136.441 55.685 136.508 55.4659C136.574 55.2468 136.593 55.016 136.563 54.789V49.35H139.719L139.677 58.989ZM141.202 49.35H144.253V51.2085H144.316C144.483 50.6137 144.843 50.091 145.34 49.7224C145.837 49.3539 146.442 49.1601 147.061 49.1715C147.691 49.1212 148.316 49.3093 148.813 49.6984C149.31 50.0875 149.642 50.6491 149.743 51.2715H149.806C149.997 50.6425 150.392 50.0948 150.929 49.7146C151.466 49.3343 152.115 49.1433 152.773 49.1715C153.202 49.1571 153.629 49.233 154.027 49.3943C154.425 49.5555 154.784 49.7985 155.082 50.1075C155.379 50.4165 155.609 50.7845 155.754 51.1876C155.9 51.5908 155.959 52.02 155.928 52.4475V59.01H152.773V53.2875C152.773 52.2375 152.299 51.7545 151.416 51.7545C151.219 51.7529 151.024 51.7934 150.844 51.8734C150.664 51.9534 150.503 52.071 150.372 52.2183C150.242 52.3656 150.144 52.5391 150.087 52.7272C150.029 52.9153 150.012 53.1135 150.038 53.3085V59.01H147.04V53.2455C147.04 52.2795 146.567 51.7545 145.704 51.7545C145.505 51.7546 145.308 51.7968 145.126 51.8784C144.944 51.9601 144.782 52.0792 144.65 52.2281C144.518 52.3769 144.419 52.552 144.359 52.7419C144.3 52.9317 144.281 53.132 144.305 53.3295V59.01H141.15L141.202 49.35Z" fill="white" fill-opacity="0.45"/>
<path id="Vector_2" d="M58.3573 46.6007C57.822 45.3789 57.1135 44.2403 56.2536 43.2197C54.9824 41.6661 53.3959 40.3988 51.5987 39.5013C49.8015 38.6037 47.8343 38.0963 45.8265 38.0124C43.8187 37.9285 41.8158 38.27 39.9497 39.0145C38.0837 39.7589 36.3967 40.8894 34.9998 42.3316C33.603 43.7737 32.5279 45.4948 31.8454 47.3816C31.1629 49.2684 30.8885 51.278 31.0401 53.2783C31.1917 55.2786 31.766 57.2242 32.7251 58.987C33.6842 60.7498 35.0065 62.2898 36.6048 63.5057C37.6304 64.3015 38.7636 64.9484 39.9707 65.4272C41.6632 66.1196 43.4746 66.4762 45.3037 66.4772C49.0792 66.4689 52.6975 64.9666 55.3652 62.2996C58.033 59.6326 59.5326 56.0186 59.5354 52.2497C59.5382 50.3057 59.137 48.3822 58.3573 46.6007ZM45.2932 40.8992C46.9357 40.8991 48.5584 41.2574 50.0476 41.9492C49.6844 42.1059 49.3026 42.2153 48.9116 42.2747C47.6247 42.4607 46.4326 43.0571 45.5132 43.9749C44.5938 44.8927 43.9963 46.0827 43.81 47.3672C43.7283 48.0877 43.4 48.7579 42.8807 49.2648C42.3614 49.7717 41.6828 50.0843 40.9595 50.1497C39.6726 50.3357 38.4805 50.9321 37.5611 51.8499C36.6417 52.7677 36.0442 53.9577 35.858 55.2422C35.7949 55.9272 35.5021 56.571 35.027 57.0692C34.2072 55.3402 33.839 53.4322 33.9565 51.5228C34.074 49.6135 34.6735 47.7649 35.6991 46.149C36.7247 44.5331 38.1432 43.2024 39.8225 42.2809C41.5018 41.3593 43.3874 40.8768 45.3037 40.8782L45.2932 40.8992ZM36.5943 59.5997C36.7205 59.4842 36.8467 59.3792 36.9729 59.2532C37.9087 58.3476 38.5094 57.152 38.677 55.8617C38.7449 55.1364 39.0693 54.459 39.5921 53.9507C40.0951 53.428 40.7722 53.1069 41.4959 53.0477C42.7828 52.8618 43.9749 52.2654 44.8943 51.3476C45.8138 50.4298 46.4112 49.2398 46.5975 47.9552C46.643 47.1966 46.9691 46.4819 47.5126 45.9497C48.0281 45.4372 48.7116 45.1277 49.4375 45.0782C50.6197 44.9159 51.7223 44.3912 52.5931 43.5767C53.5846 44.3979 54.4247 45.3858 55.0755 46.4957C55.0355 46.5497 54.9897 46.599 54.9387 46.6427C54.4367 47.17 53.7604 47.4982 53.0349 47.5667C51.7467 47.7494 50.5528 48.3448 49.6328 49.2632C48.7128 50.1816 48.1164 51.3733 47.9333 52.6592C47.8592 53.3821 47.537 54.0571 47.0213 54.57C46.5057 55.0828 45.8282 55.4019 45.1038 55.4732C43.8132 55.6578 42.6167 56.253 41.6919 57.1704C40.7672 58.0878 40.1636 59.2786 39.9707 60.5657C39.9141 61.0789 39.7376 61.5716 39.4553 62.0042C38.3761 61.3646 37.4096 60.5523 36.5943 59.5997ZM45.2932 63.6527C44.2258 63.6539 43.1636 63.5054 42.1376 63.2117C42.4885 62.5586 42.7167 61.8469 42.8108 61.1117C42.8845 60.3905 43.2052 59.7167 43.7187 59.2041C44.2323 58.6914 44.9072 58.3713 45.6298 58.2977C46.9185 58.1139 48.113 57.5184 49.0345 56.6004C49.956 55.6825 50.555 54.4913 50.7418 53.2052C50.8155 52.484 51.1362 51.8102 51.6498 51.2976C52.1633 50.7849 52.8383 50.4648 53.5608 50.3912C54.5306 50.2653 55.455 49.9049 56.2536 49.3412C56.697 51.019 56.7495 52.7759 56.4071 54.4772C56.0647 56.1784 55.3365 57.7787 54.2783 59.1553C53.2201 60.532 51.8601 61.6484 50.3026 62.4189C48.7451 63.1894 47.0314 63.5935 45.2932 63.6002V63.6527Z" fill="white" fill-opacity="0.45"/>
</g>
</svg>
