<svg width="186" height="105" viewBox="0 0 186 105" fill="none" xmlns="http://www.w3.org/2000/svg">
<g id="Logo">
<path id="Vector" d="M43.3347 50.7895C42.9382 51.1899 42.6346 51.6731 42.4454 52.2046C42.2562 52.7362 42.1862 53.3031 42.2403 53.865L42.2215 53.8461C42.2771 54.5074 42.1883 55.173 41.9611 55.7963C41.734 56.4196 41.3741 56.9857 40.9064 57.455C40.4388 57.9243 39.8748 58.2855 39.2537 58.5135C38.6326 58.7414 37.9694 58.8306 37.3104 58.7748L37.3292 58.7937C36.541 58.72 35.7493 58.8922 35.0621 59.2867C34.3749 59.6811 33.8256 60.2787 33.4892 60.9979C33.1528 61.7172 33.0456 62.523 33.1823 63.3056C33.3189 64.0882 33.6928 64.8094 34.2528 65.371C34.8129 65.9325 35.5319 66.3071 36.3118 66.4435C37.0917 66.5799 37.8946 66.4716 38.6109 66.1334C39.3273 65.7951 39.9222 65.2434 40.3147 64.5533C40.7071 63.8633 40.8779 63.0686 40.8038 62.2776L40.8237 62.2965C40.7681 61.6351 40.8569 60.9696 41.0841 60.3463C41.3112 59.7229 41.6712 59.1569 42.1388 58.6876C42.6064 58.2183 43.1704 57.857 43.7915 57.6291C44.4126 57.4011 45.0758 57.312 45.7348 57.3678L45.7149 57.3489C46.3588 57.407 47.007 57.301 47.5992 57.0408C48.1914 56.7806 48.7087 56.3746 49.1029 55.8604C49.4972 55.3462 49.7557 54.7404 49.8546 54.0992C49.9534 53.458 49.8894 52.8021 49.6684 52.1924C49.4474 51.5826 49.0767 51.0387 48.5905 50.6111C48.1043 50.1834 47.5184 49.8858 46.8871 49.7459C46.2558 49.606 45.5995 49.6283 44.9791 49.8108C44.3586 49.9932 43.7941 50.3298 43.3379 50.7895H43.3347Z" fill="white" fill-opacity="0.45"/>
<path id="Vector_2" d="M35.6162 56.3177L35.5963 56.2988C36.1564 56.3554 36.722 56.2864 37.2523 56.0968C37.7825 55.9072 38.2642 55.6016 38.6624 55.2023C39.0606 54.803 39.3654 54.3199 39.5547 53.7878C39.7441 53.2558 39.8132 52.6882 39.7572 52.1261L39.7771 52.145C39.7215 51.4836 39.8103 50.8181 40.0375 50.1947C40.2646 49.5714 40.6245 49.0053 41.0922 48.536C41.5598 48.0667 42.1238 47.7055 42.7449 47.4776C43.366 47.2496 44.0292 47.1604 44.6882 47.2163L44.6683 47.1974C45.4567 47.2717 46.2486 47.1001 46.9362 46.7061C47.6238 46.312 48.1736 45.7147 48.5105 44.9956C48.8474 44.2765 48.9551 43.4706 48.8188 42.6878C48.6826 41.905 48.309 41.1835 47.7491 40.6216C47.1893 40.0597 46.4703 39.6848 45.6903 39.5481C44.9103 39.4113 44.1073 39.5194 43.3907 39.8575C42.6742 40.1956 42.079 40.7474 41.6864 41.4374C41.2938 42.1275 41.1228 42.9223 41.1969 43.7135L41.178 43.6935C41.2339 44.3549 41.1451 45.0205 40.9181 45.6439C40.691 46.2674 40.331 46.8335 39.8634 47.3028C39.3957 47.7722 38.8316 48.1334 38.2104 48.3613C37.5892 48.5892 36.926 48.6782 36.267 48.6222L36.2858 48.6422C35.7257 48.5855 35.1601 48.6545 34.6298 48.8441C34.0995 49.0338 33.6179 49.3393 33.2197 49.7386C32.8215 50.1379 32.5167 50.6211 32.3274 51.1531C32.138 51.6851 32.0688 52.2527 32.1249 52.8149L32.106 52.796C32.1615 53.4573 32.0725 54.1227 31.8453 54.746C31.6181 55.3692 31.2581 55.9352 30.7905 56.4045C30.323 56.8737 29.759 57.235 29.138 57.463C28.517 57.691 27.8539 57.7803 27.1949 57.7247L27.2138 57.7436C26.4254 57.6693 25.6335 57.8408 24.9459 58.2349C24.2583 58.6289 23.7085 59.2262 23.3716 59.9453C23.0347 60.6644 22.927 61.4703 23.0633 62.2531C23.1995 63.0359 23.5731 63.7574 24.1329 64.3193C24.6928 64.8812 25.4118 65.2561 26.1918 65.3928C26.9718 65.5296 27.7748 65.4215 28.4913 65.0834C29.2079 64.7453 29.8031 64.1936 30.1957 63.5035C30.5883 62.8134 30.7592 62.0186 30.6852 61.2275L30.7051 61.2464C30.6495 60.585 30.7383 59.9195 30.9655 59.2961C31.1926 58.6728 31.5525 58.1068 32.0202 57.6374C32.4878 57.1681 33.0518 56.8069 33.6729 56.579C34.294 56.351 34.9572 56.2618 35.6162 56.3177Z" fill="white" fill-opacity="0.45"/>
<path id="Vector_3" d="M28.6043 54.2105C29.0009 53.8102 29.3045 53.327 29.4935 52.7954C29.6825 52.2638 29.7522 51.6968 29.6976 51.135L29.7175 51.1539C29.6618 50.4924 29.7507 49.8266 29.978 49.2032C30.2052 48.5797 30.5654 48.0135 31.0332 47.5441C31.5011 47.0748 32.0654 46.7136 32.6868 46.4858C33.3081 46.258 33.9715 46.1691 34.6307 46.2252L34.6108 46.2063C35.3989 46.2804 36.1905 46.1088 36.8778 45.7148C37.5651 45.3208 38.1145 44.7236 38.4513 44.0047C38.788 43.2858 38.8955 42.4802 38.7593 41.6977C38.623 40.9152 38.2496 40.194 37.6899 39.6323C37.1302 39.0706 36.4116 38.6958 35.6319 38.5591C34.8522 38.4224 34.0494 38.5303 33.3331 38.8682C32.6168 39.2061 32.0218 39.7576 31.6292 40.4473C31.2366 41.1371 31.0655 41.9316 31.1394 42.7224L31.1205 42.7035C31.1762 43.3649 31.0873 44.0304 30.8602 44.6538C30.633 45.2771 30.2731 45.8432 29.8055 46.3125C29.3378 46.7818 28.7738 47.143 28.1527 47.3709C27.5316 47.5989 26.8684 47.6881 26.2094 47.6322L26.2283 47.6511C25.5844 47.5932 24.9363 47.6993 24.3442 47.9596C23.752 48.2199 23.2349 48.626 22.8408 49.1403C22.4466 49.6546 22.1882 50.2604 22.0895 50.9015C21.9908 51.5427 22.0549 52.1985 22.2759 52.8082C22.497 53.4179 22.8678 53.9618 23.354 54.3893C23.8402 54.8169 24.4261 55.1144 25.0574 55.2542C25.6887 55.3941 26.3449 55.3717 26.9653 55.1893C27.5857 55.0068 28.1502 54.6702 28.6064 54.2105H28.6043Z" fill="white" fill-opacity="0.45"/>
<path id="Vector_4" d="M61.0142 43.7378H64.1215V58.9134H61.0142V43.7378Z" fill="white" fill-opacity="0.45"/>
<path id="Vector_5" d="M65.881 53.7169C65.8767 52.6264 66.1949 51.559 66.7955 50.6501C67.396 49.7412 68.2519 49.0317 69.2546 48.6113C70.2573 48.1909 71.3618 48.0787 72.4281 48.2887C73.4945 48.4988 74.4747 49.0218 75.2446 49.7914C76.0146 50.561 76.5396 51.5426 76.7532 52.6119C76.9668 53.6812 76.8594 54.7901 76.4445 55.7981C76.0297 56.8061 75.3261 57.6678 74.4228 58.2742C73.5196 58.8806 72.4574 59.2042 71.3707 59.2042C70.6493 59.2125 69.9336 59.0764 69.2653 58.8038C68.597 58.5312 67.9895 58.1277 67.4784 57.6168C66.9672 57.1059 66.5627 56.4979 66.2885 55.8283C66.0142 55.1587 65.8757 54.4409 65.881 53.7169ZM73.753 53.7169C73.74 53.2469 73.5893 52.791 73.3196 52.4065C73.0499 52.0219 72.6733 51.7257 72.2367 51.5547C71.8002 51.3838 71.3231 51.3459 70.8652 51.4456C70.4073 51.5453 69.9888 51.7783 69.6621 52.1154C69.3353 52.4525 69.1149 52.8787 69.0283 53.3409C68.9416 53.8031 68.9927 54.2806 69.175 54.7138C69.3573 55.147 69.6629 55.5166 70.0534 55.7765C70.4439 56.0364 70.9021 56.175 71.3707 56.175C71.6916 56.1836 72.0108 56.1254 72.3082 56.004C72.6055 55.8826 72.8746 55.7007 73.0984 55.4698C73.3223 55.2388 73.496 54.9639 73.6086 54.6622C73.7213 54.3605 73.7704 54.0386 73.753 53.7169Z" fill="white" fill-opacity="0.45"/>
<path id="Vector_6" d="M89.2448 48.5194V58.3894C89.2448 61.8817 86.5309 63.358 83.7761 63.358C82.8062 63.4308 81.835 63.2342 80.969 62.7897C80.1031 62.3452 79.3759 61.6699 78.8671 60.838L81.5183 59.2997C81.7321 59.7334 82.0729 60.0911 82.4949 60.3251C82.9169 60.5591 83.4 60.6582 83.8797 60.6091C84.1862 60.6517 84.4984 60.6246 84.7931 60.5298C85.0878 60.435 85.3575 60.2749 85.5822 60.0614C85.8069 59.8478 85.981 59.5863 86.0914 59.2962C86.2018 59.006 86.2458 58.6947 86.2201 58.3852V57.4349C85.8563 57.8817 85.3931 58.2367 84.8678 58.4714C84.3425 58.7061 83.7697 58.8139 83.1954 58.7863C81.8288 58.743 80.5326 58.1678 79.5811 57.1823C78.6297 56.1969 78.0977 54.8785 78.0977 53.5063C78.0977 52.1342 78.6297 50.8158 79.5811 49.8304C80.5326 48.8449 81.8288 48.2697 83.1954 48.2264C83.7697 48.1988 84.3425 48.3066 84.8678 48.5413C85.3931 48.776 85.8563 49.1309 86.2201 49.5778V48.5173L89.2448 48.5194ZM86.2212 53.5079C86.2421 53.0053 86.1126 52.508 85.8494 52.0799C85.5863 51.6518 85.2015 51.3125 84.7446 51.1057C84.2877 50.8989 83.7796 50.8341 83.2857 50.9196C82.7917 51.005 82.3346 51.2369 81.9731 51.5853C81.6116 51.9337 81.3622 52.3828 81.2572 52.8746C81.1521 53.3664 81.1961 53.8786 81.3835 54.3451C81.5709 54.8116 81.8931 55.2112 82.3087 55.4924C82.7243 55.7736 83.2142 55.9235 83.7154 55.9229C84.0419 55.9458 84.3695 55.8998 84.6772 55.7878C84.9849 55.6759 85.2658 55.5005 85.5019 55.273C85.7379 55.0455 85.9239 54.7709 86.0478 54.4669C86.1717 54.1629 86.2307 53.8362 86.2212 53.5079Z" fill="white" fill-opacity="0.45"/>
<path id="Vector_7" d="M91.0045 53.7169C91.0002 52.6264 91.3185 51.559 91.919 50.6501C92.5196 49.7412 93.3754 49.0317 94.3781 48.6113C95.3808 48.1909 96.4853 48.0787 97.5517 48.2887C98.618 48.4988 99.5982 49.0218 100.368 49.7914C101.138 50.561 101.663 51.5426 101.877 52.6119C102.09 53.6812 101.983 54.7901 101.568 55.7981C101.153 56.8061 100.45 57.6678 99.5464 58.2742C98.6431 58.8806 97.5809 59.2042 96.4942 59.2042C95.7729 59.2125 95.0571 59.0764 94.3888 58.8038C93.7205 58.5312 93.113 58.1277 92.6019 57.6168C92.0908 57.1059 91.6863 56.4979 91.412 55.8283C91.1377 55.1587 90.9992 54.4409 91.0045 53.7169ZM98.8765 53.7169C98.8636 53.2469 98.7128 52.791 98.4431 52.4065C98.1734 52.0219 97.7968 51.7257 97.3602 51.5547C96.9237 51.3838 96.4466 51.3459 95.9887 51.4456C95.5308 51.5453 95.1123 51.7783 94.7856 52.1154C94.4589 52.4525 94.2384 52.8787 94.1518 53.3409C94.0652 53.8031 94.1162 54.2806 94.2985 54.7138C94.4809 55.147 94.7864 55.5166 95.1769 55.7765C95.5674 56.0364 96.0256 56.175 96.4942 56.175C96.8151 56.1836 97.1343 56.1254 97.4317 56.004C97.7291 55.8826 97.9981 55.7007 98.222 55.4698C98.4458 55.2388 98.6195 54.9639 98.7322 54.6622C98.8448 54.3605 98.894 54.0386 98.8765 53.7169Z" fill="white" fill-opacity="0.45"/>
<path id="Vector_8" d="M103.433 45.7339C103.433 45.3638 103.542 45.0021 103.747 44.6944C103.952 44.3867 104.243 44.1468 104.584 44.0052C104.925 43.8636 105.3 43.8265 105.661 43.8987C106.023 43.9709 106.355 44.1492 106.616 44.4108C106.877 44.6725 107.054 45.0059 107.126 45.3689C107.198 45.7318 107.161 46.108 107.02 46.4499C106.879 46.7918 106.64 47.0841 106.333 47.2897C106.027 47.4953 105.666 47.605 105.298 47.605C104.805 47.6001 104.333 47.4014 103.985 47.0515C103.636 46.7017 103.438 46.2286 103.433 45.7339ZM103.747 48.5195H106.855V58.9145H103.743L103.747 48.5195Z" fill="white" fill-opacity="0.45"/>
<path id="Vector_9" d="M120.272 53.7168C120.308 54.4038 120.209 55.0911 119.979 55.7393C119.749 56.3875 119.394 56.9837 118.934 57.4936C118.474 58.0036 117.918 58.4172 117.298 58.7108C116.678 59.0043 116.006 59.172 115.322 59.2041C114.746 59.2356 114.17 59.1382 113.637 58.9188C113.103 58.6994 112.625 58.3636 112.236 57.9357V63.0712H109.129V48.5193H112.236V49.4958C112.625 49.0682 113.103 48.7327 113.637 48.5135C114.17 48.2943 114.746 48.1969 115.322 48.2284C116.007 48.2604 116.678 48.428 117.298 48.7216C117.918 49.0152 118.475 49.4289 118.935 49.939C119.395 50.4491 119.75 51.0455 119.98 51.6938C120.209 52.3422 120.309 53.0297 120.272 53.7168ZM117.165 53.7168C117.153 53.2303 116.998 52.7582 116.72 52.3596C116.442 51.961 116.053 51.6536 115.601 51.4759C115.15 51.2981 114.656 51.2579 114.182 51.3604C113.708 51.4628 113.275 51.7032 112.936 52.0516C112.598 52.4001 112.369 52.8409 112.279 53.3191C112.189 53.7973 112.241 54.2915 112.43 54.7399C112.618 55.1883 112.934 55.571 113.338 55.8401C113.742 56.1091 114.216 56.2526 114.701 56.2526C115.034 56.2674 115.366 56.2115 115.676 56.0885C115.986 55.9654 116.267 55.7781 116.499 55.5386C116.732 55.2992 116.911 55.0131 117.026 54.6991C117.141 54.3852 117.188 54.0504 117.165 53.7168Z" fill="white" fill-opacity="0.45"/>
<path id="Vector_10" d="M129.861 55.7949C129.861 58.1857 127.791 59.2042 125.554 59.2042C124.65 59.2864 123.743 59.0946 122.949 58.6536C122.155 58.2126 121.511 57.5426 121.1 56.7304L123.792 55.1922C123.901 55.5676 124.135 55.8942 124.455 56.1174C124.775 56.3406 125.161 56.4469 125.55 56.4186C126.295 56.4186 126.668 56.1897 126.668 55.7749C126.668 54.6304 121.572 55.2342 121.572 51.6379C121.572 49.371 123.478 48.2286 125.632 48.2286C126.442 48.2029 127.244 48.3956 127.954 48.7868C128.665 49.178 129.258 49.7532 129.671 50.4525L127.02 51.8868C126.904 51.6145 126.71 51.3826 126.463 51.22C126.217 51.0573 125.928 50.9712 125.632 50.9722C125.094 50.9722 124.762 51.1822 124.762 51.5539C124.766 52.7394 129.861 51.9487 129.861 55.7949Z" fill="white" fill-opacity="0.45"/>
<path id="Vector_11" d="M141.212 48.5195V58.9145H138.105V57.937C137.747 58.3683 137.291 58.7082 136.777 58.9287C136.262 59.1492 135.702 59.244 135.144 59.2054C133.052 59.2054 131.273 57.7091 131.273 54.9004V48.5195H134.38V54.4436C134.354 54.6912 134.382 54.9415 134.463 55.1771C134.543 55.4127 134.673 55.6279 134.845 55.8078C135.016 55.9876 135.225 56.1279 135.455 56.2187C135.686 56.3095 135.934 56.3487 136.182 56.3336C137.321 56.3336 138.108 55.669 138.108 54.1927V48.5227L141.212 48.5195Z" fill="white" fill-opacity="0.45"/>
<path id="Vector_12" d="M159.03 52.5316V58.9135H155.923V52.8014C155.923 51.7619 155.426 51.0973 154.432 51.0973C153.396 51.0973 152.815 51.8249 152.815 53.0513V58.9135H149.709V52.8014C149.709 51.7619 149.212 51.0973 148.217 51.0973C147.181 51.0973 146.601 51.8249 146.601 53.0513V58.9135H143.494V48.5185H146.601V49.474C146.924 49.0501 147.346 48.7139 147.831 48.4962C148.316 48.2785 148.848 48.1861 149.377 48.2276C149.909 48.2015 150.438 48.3141 150.914 48.5544C151.389 48.7948 151.794 49.1546 152.09 49.5989C152.434 49.1341 152.891 48.7645 153.416 48.5247C153.941 48.2849 154.519 48.1827 155.094 48.2276C157.472 48.2287 159.03 49.9328 159.03 52.5316Z" fill="white" fill-opacity="0.45"/>
<path id="Vector_13" d="M161.658 48.4553C162.932 48.4553 163.964 47.4192 163.964 46.1411C163.964 44.863 162.932 43.8269 161.658 43.8269C160.384 43.8269 159.352 44.863 159.352 46.1411C159.352 47.4192 160.384 48.4553 161.658 48.4553Z" fill="white" fill-opacity="0.45"/>
</g>
</svg>
