<svg width="186" height="104" viewBox="0 0 186 104" fill="none" xmlns="http://www.w3.org/2000/svg">
<g id="Logo">
<path id="Vector" d="M71.0188 59.6854C70.3965 59.719 69.781 59.5431 69.2715 59.1862C69.0587 59.0294 68.8874 58.8234 68.7726 58.586C68.6577 58.3487 68.6028 58.0871 68.6124 57.8238V48.183C68.6073 48.1422 68.6117 48.1008 68.6251 48.0619C68.6386 48.023 68.6608 47.9877 68.69 47.9586C68.7193 47.9295 68.7548 47.9074 68.794 47.8941C68.8331 47.8807 68.8748 47.8764 68.9158 47.8814H70.6735C70.8723 47.8814 70.9664 47.9854 70.9664 48.183V57.075C70.9664 57.4702 71.1443 57.6678 71.5105 57.6678C71.6657 57.6742 71.821 57.6567 71.9708 57.6158C72.1801 57.6158 72.2952 57.6782 72.3056 57.8654L72.4626 59.1654C72.4701 59.2033 72.4694 59.2424 72.4605 59.28C72.4515 59.3176 72.4346 59.3529 72.4108 59.3834C72.387 59.414 72.3569 59.4391 72.3225 59.4571C72.2881 59.4751 72.2503 59.4856 72.2115 59.4878C71.8265 59.6143 71.4242 59.6809 71.0188 59.6854Z" fill="white" fill-opacity="0.45"/>
<path id="Vector_2" d="M80.9057 58.5728C80.0225 59.2982 78.9126 59.695 77.767 59.695C76.6213 59.695 75.5115 59.2982 74.6283 58.5728C73.852 57.7938 73.4165 56.7417 73.4165 55.6452C73.4165 54.5487 73.852 53.4966 74.6283 52.7176C75.5132 51.996 76.6224 51.6016 77.767 51.6016C78.9116 51.6016 80.0208 51.996 80.9057 52.7176C81.6641 53.5037 82.0875 54.5508 82.0875 55.64C82.0875 56.7292 81.6641 57.7762 80.9057 58.5624V58.5728ZM76.2813 57.2C76.6912 57.569 77.2244 57.7734 77.7774 57.7734C78.3304 57.7734 78.8637 57.569 79.2736 57.2C79.6445 56.776 79.8488 56.2331 79.8488 55.6712C79.8488 55.1093 79.6445 54.5664 79.2736 54.1424C78.8637 53.7733 78.3304 53.5689 77.7774 53.5689C77.2244 53.5689 76.6912 53.7733 76.2813 54.1424C75.9104 54.5664 75.7061 55.1093 75.7061 55.6712C75.7061 56.2331 75.9104 56.776 76.2813 57.2Z" fill="white" fill-opacity="0.45"/>
<path id="Vector_3" d="M91.7653 51.8648C91.9641 51.8648 92.0582 51.9688 92.0582 52.1664V59.6232C92.0765 60.1265 91.9818 60.6275 91.7809 61.0899C91.58 61.5522 91.278 61.9642 90.8969 62.296C90.051 63.0131 88.963 63.3847 87.8524 63.336C86.8492 63.3711 85.8594 63.0988 85.0171 62.556C84.6574 62.3212 84.3501 62.0154 84.1143 61.6576C83.8785 61.2998 83.7193 60.8976 83.6465 60.476C83.6465 60.268 83.6465 60.1744 83.929 60.1744H85.6867C85.7613 60.177 85.8336 60.2009 85.8948 60.2433C85.9561 60.2858 86.0037 60.3449 86.0319 60.4136C86.1459 60.7295 86.3732 60.9924 86.6701 61.152C87.032 61.3376 87.4348 61.4306 87.8419 61.4224C88.0876 61.4358 88.3334 61.4004 88.5652 61.3182C88.7969 61.2361 89.0098 61.1089 89.1915 60.944C89.3575 60.7716 89.4867 60.5675 89.5712 60.344C89.6557 60.1206 89.6938 59.8825 89.6833 59.644V58.9888C89.054 59.449 88.288 59.6869 87.5071 59.6648C86.9606 59.6846 86.4156 59.5944 85.905 59.3996C85.3944 59.2048 84.9287 58.9094 84.5358 58.5312C83.7815 57.7555 83.3599 56.7189 83.3599 55.64C83.3599 54.5612 83.7815 53.5245 84.5358 52.7488C84.9306 52.374 85.3969 52.0815 85.9072 51.8886C86.4175 51.6957 86.9615 51.6063 87.5071 51.6256C88.3106 51.6045 89.0971 51.8578 89.7356 52.3432V52.1768C89.7308 52.137 89.735 52.0966 89.7478 52.0585C89.7607 52.0205 89.7819 51.9857 89.81 51.9569C89.838 51.928 89.8722 51.9057 89.91 51.8916C89.9478 51.8774 89.9883 51.8719 90.0285 51.8752L91.7653 51.8648ZM87.7059 57.8136C87.9754 57.8219 88.2435 57.7713 88.4912 57.6652C88.7389 57.5592 88.9601 57.4004 89.1392 57.2C89.4871 56.7535 89.6758 56.2048 89.6758 55.64C89.6758 55.0753 89.4871 54.5266 89.1392 54.08C88.9607 53.8824 88.7408 53.7259 88.495 53.6217C88.2492 53.5175 87.9834 53.4681 87.7163 53.4768C87.4437 53.4683 87.1725 53.5188 86.9214 53.6247C86.6703 53.7307 86.4453 53.8896 86.2621 54.0904C85.8767 54.5176 85.6741 55.0772 85.6971 55.6504C85.6782 56.2181 85.8764 56.7718 86.2516 57.2C86.4353 57.4004 86.6603 57.5589 86.9113 57.6648C87.1623 57.7707 87.4333 57.8215 87.7059 57.8136Z" fill="white" fill-opacity="0.45"/>
<path id="Vector_4" d="M101.087 58.5727C100.202 59.2943 99.093 59.6887 97.9484 59.6887C96.8038 59.6887 95.6946 59.2943 94.8097 58.5727C94.0507 57.7848 93.627 56.736 93.627 55.6451C93.627 54.5542 94.0507 53.5054 94.8097 52.7175C95.6955 51.9977 96.8044 51.6045 97.9484 51.6045C99.0925 51.6045 100.201 51.9977 101.087 52.7175C101.846 53.5036 102.269 54.5507 102.269 55.6399C102.269 56.7291 101.846 57.7761 101.087 58.5623V58.5727ZM96.4523 57.1999C96.6529 57.3895 96.8893 57.5378 97.1479 57.636C97.4065 57.7341 97.6822 57.7803 97.9589 57.7719C98.2339 57.779 98.5075 57.7321 98.7642 57.6339C99.021 57.5358 99.2557 57.3883 99.455 57.1999C99.8199 56.7731 100.02 56.2312 100.02 55.6711C100.02 55.111 99.8199 54.5691 99.455 54.1423C99.2557 53.9539 99.021 53.8064 98.7642 53.7082C98.5075 53.6101 98.2339 53.5632 97.9589 53.5703C97.6822 53.5618 97.4065 53.608 97.1479 53.7062C96.8893 53.8044 96.6529 53.9526 96.4523 54.1423C96.0874 54.5691 95.8871 55.111 95.8871 55.6711C95.8871 56.2312 96.0874 56.7731 96.4523 57.1999Z" fill="white" fill-opacity="0.45"/>
<path id="Vector_5" d="M106.047 50.0968C105.77 50.3374 105.415 50.4701 105.048 50.4701C104.68 50.4701 104.325 50.3374 104.048 50.0968C103.923 49.9792 103.823 49.8373 103.755 49.6799C103.687 49.5226 103.651 49.353 103.651 49.1816C103.651 49.0102 103.687 48.8406 103.755 48.6833C103.823 48.5259 103.923 48.384 104.048 48.2664C104.328 48.0318 104.682 47.9031 105.048 47.9031C105.413 47.9031 105.767 48.0318 106.047 48.2664C106.172 48.384 106.272 48.5259 106.34 48.6833C106.409 48.8406 106.444 49.0102 106.444 49.1816C106.444 49.353 106.409 49.5226 106.34 49.6799C106.272 49.8373 106.172 49.9792 106.047 50.0968ZM106.266 59.6856C105.645 59.7159 105.03 59.5403 104.519 59.1864C104.31 59.0272 104.141 58.8205 104.028 58.5835C103.916 58.3465 103.861 58.0861 103.871 57.824V52.1664C103.865 52.1256 103.87 52.0841 103.883 52.0453C103.897 52.0064 103.919 51.971 103.948 51.9419C103.977 51.9129 104.013 51.8908 104.052 51.8774C104.091 51.8641 104.133 51.8597 104.174 51.8648H105.932C106.13 51.8648 106.225 51.9688 106.225 52.1664V57.0752C106.225 57.4704 106.402 57.668 106.758 57.668C106.917 57.6737 107.075 57.6561 107.229 57.616C107.438 57.616 107.553 57.6784 107.564 57.8656L107.721 59.1656C107.728 59.2035 107.728 59.2426 107.719 59.2802C107.71 59.3178 107.693 59.353 107.669 59.3836C107.645 59.4141 107.615 59.4393 107.581 59.4573C107.546 59.4753 107.508 59.4858 107.47 59.488C107.081 59.6151 106.675 59.6818 106.266 59.6856Z" fill="white" fill-opacity="0.45"/>
<path id="Vector_6" d="M114.186 51.6152C114.735 51.5936 115.283 51.6819 115.797 51.8749C116.311 52.0678 116.781 52.3614 117.178 52.7384C117.918 53.5276 118.33 54.5664 118.33 55.6452C118.33 56.724 117.918 57.7627 117.178 58.552C116.783 58.9322 116.314 59.2287 115.799 59.4236C115.285 59.6184 114.736 59.7076 114.186 59.6856C113.403 59.7029 112.635 59.4655 112 59.0096V62.764C112 62.9616 111.895 63.0552 111.696 63.0552H109.938C109.898 63.0626 109.857 63.0602 109.818 63.0482C109.779 63.0362 109.744 63.015 109.715 62.9863C109.686 62.9576 109.665 62.9224 109.653 62.8836C109.64 62.8449 109.638 62.8038 109.646 62.764V54.236C109.658 54.1525 109.65 54.0674 109.624 53.9874C109.597 53.9074 109.552 53.8346 109.492 53.775C109.432 53.7154 109.359 53.6706 109.278 53.6441C109.198 53.6175 109.112 53.6101 109.028 53.6224H108.683C108.453 53.6224 108.338 53.5392 108.338 53.3728V52.1456C108.332 52.0696 108.353 51.9941 108.397 51.9317C108.441 51.8692 108.505 51.8236 108.578 51.8024C108.94 51.6716 109.323 51.6081 109.708 51.6152C110.092 51.5814 110.478 51.6623 110.815 51.8476C111.152 52.0329 111.426 52.3141 111.602 52.6552C111.939 52.3163 112.342 52.0493 112.786 51.8705C113.231 51.6917 113.707 51.6048 114.186 51.6152ZM112.554 57.2C112.741 57.3938 112.965 57.548 113.213 57.6534C113.461 57.7587 113.728 57.813 113.998 57.813C114.268 57.813 114.535 57.7587 114.783 57.6534C115.031 57.548 115.255 57.3938 115.442 57.2C115.835 56.7643 116.041 56.1934 116.017 55.6088C116.045 55.0236 115.838 54.4515 115.442 54.0176C115.255 53.8238 115.031 53.6695 114.783 53.5642C114.535 53.4588 114.268 53.4045 113.998 53.4045C113.728 53.4045 113.461 53.4588 113.213 53.5642C112.965 53.6695 112.741 53.8238 112.554 54.0176C112.173 54.4591 111.975 55.0277 112 55.6088C111.978 56.1893 112.176 56.7568 112.554 57.2Z" fill="white" fill-opacity="0.45"/>
<path id="Vector_7" d="M123.268 59.6855C122.328 59.7239 121.397 59.5005 120.579 59.0407C120.251 58.8441 119.971 58.5766 119.761 58.2579C119.551 57.9392 119.416 57.5776 119.365 57.1999C119.365 56.9919 119.438 56.8879 119.669 56.8879H121.207C121.28 56.8907 121.351 56.9136 121.412 56.954C121.473 56.9943 121.521 57.0507 121.552 57.1167C121.772 57.6783 122.347 57.9591 123.268 57.9591C123.589 57.9737 123.909 57.9094 124.199 57.7719C124.299 57.7269 124.385 57.6558 124.448 57.566C124.51 57.4763 124.547 57.3713 124.555 57.2623C124.555 56.9919 124.387 56.8047 124.052 56.6799C123.655 56.5485 123.245 56.4613 122.828 56.4199C122.335 56.3644 121.846 56.2775 121.364 56.1599C120.895 56.0544 120.468 55.8117 120.139 55.4631C119.946 55.2262 119.803 54.9521 119.721 54.6581C119.638 54.3641 119.617 54.0563 119.659 53.7539C119.702 53.4515 119.806 53.161 119.966 52.9004C120.126 52.6398 120.338 52.4147 120.589 52.2391C121.343 51.7616 122.228 51.529 123.121 51.5735C123.986 51.5444 124.841 51.757 125.59 52.1871C125.892 52.3571 126.152 52.5918 126.351 52.8743C126.55 53.1568 126.684 53.4798 126.741 53.8199C126.741 54.0279 126.647 54.1319 126.459 54.1319H124.91C124.845 54.1357 124.78 54.1199 124.724 54.0865C124.668 54.0531 124.624 54.0037 124.596 53.9447C124.493 53.6984 124.298 53.501 124.052 53.3935C123.775 53.2493 123.465 53.1777 123.153 53.1855C122.846 53.1689 122.54 53.2297 122.263 53.3623C122.166 53.3997 122.082 53.4652 122.022 53.5505C121.962 53.6358 121.93 53.7368 121.929 53.8407C121.935 53.9829 121.988 54.1193 122.078 54.2297C122.168 54.3401 122.292 54.4189 122.431 54.4543C122.832 54.6048 123.25 54.7095 123.676 54.7663C124.165 54.8303 124.651 54.9206 125.13 55.0367C125.599 55.1422 126.025 55.3849 126.354 55.7335C126.53 55.9255 126.666 56.1503 126.754 56.3949C126.842 56.6394 126.88 56.8989 126.867 57.1583C126.876 57.5178 126.791 57.8735 126.62 58.1907C126.45 58.5078 126.199 58.7756 125.894 58.9679C125.112 59.4667 124.196 59.717 123.268 59.6855Z" fill="white" fill-opacity="0.45"/>
<path id="Vector_8" d="M137.926 59.1655C137.931 59.2025 137.93 59.2402 137.921 59.2765C137.912 59.3129 137.896 59.347 137.873 59.3771C137.851 59.4071 137.823 59.4324 137.79 59.4514C137.758 59.4705 137.722 59.4829 137.685 59.488C137.303 59.6119 136.904 59.6785 136.503 59.6855C136.105 59.7265 135.704 59.6647 135.337 59.5062C134.97 59.3477 134.651 59.0978 134.41 58.7808C133.671 59.4123 132.716 59.7364 131.742 59.6855C131.29 59.7062 130.839 59.6327 130.417 59.4697C129.996 59.3068 129.613 59.0579 129.294 58.7391C128.977 58.4052 128.731 58.011 128.571 57.5803C128.411 57.1497 128.34 56.6913 128.363 56.2327V52.1663C128.363 51.9687 128.457 51.8647 128.656 51.8647H130.414C130.612 51.8647 130.707 51.9687 130.707 52.1663V55.9207C130.687 56.3885 130.848 56.8459 131.156 57.1999C131.31 57.3621 131.497 57.4897 131.705 57.574C131.912 57.6583 132.136 57.6974 132.36 57.6888C132.589 57.6987 132.818 57.6634 133.033 57.5849C133.249 57.5063 133.447 57.3861 133.615 57.2311C133.774 57.0678 133.899 56.8737 133.98 56.6609C134.06 56.448 134.097 56.2209 134.086 55.9935V52.1663C134.086 51.9687 134.18 51.8647 134.379 51.8647H136.157C136.356 51.8647 136.45 51.9687 136.45 52.1663V57.0647C136.45 57.4703 136.628 57.668 136.973 57.668C137.136 57.6742 137.298 57.6567 137.455 57.616C137.494 57.6049 137.536 57.6029 137.576 57.6102C137.617 57.6174 137.655 57.6336 137.688 57.6576C137.721 57.6816 137.749 57.7128 137.768 57.7488C137.787 57.7848 137.798 57.8247 137.8 57.8655L137.926 59.1655Z" fill="white" fill-opacity="0.45"/>
<path id="Vector_9" d="M154.55 59.1657C154.56 59.2029 154.56 59.2417 154.553 59.2794C154.545 59.317 154.529 59.3525 154.506 59.3833C154.483 59.4141 154.454 59.4395 154.42 59.4576C154.386 59.4757 154.348 59.4861 154.31 59.4881C153.921 59.6138 153.515 59.6804 153.106 59.6857C152.484 59.7176 151.869 59.5419 151.359 59.1865C151.139 59.0342 150.959 58.8302 150.837 58.5926C150.715 58.3549 150.653 58.0909 150.658 57.8241V55.3801C150.68 54.9137 150.523 54.4564 150.219 54.1009C150.072 53.9383 149.891 53.8102 149.688 53.7256C149.485 53.6411 149.267 53.6023 149.047 53.6121C148.849 53.6046 148.652 53.642 148.471 53.7212C148.29 53.8005 148.129 53.9196 148.001 54.0697C147.725 54.4182 147.583 54.8537 147.603 55.2969V59.1345C147.603 59.3321 147.509 59.4361 147.31 59.4361H145.542C145.501 59.4411 145.459 59.4368 145.42 59.4234C145.381 59.4101 145.346 59.388 145.316 59.3589C145.287 59.3298 145.265 59.2945 145.251 59.2556C145.238 59.2167 145.234 59.1753 145.239 59.1345V55.3801C145.262 54.9188 145.117 54.4648 144.831 54.1009C144.703 53.948 144.543 53.825 144.362 53.7405C144.182 53.656 143.984 53.6121 143.784 53.6121C143.571 53.6035 143.358 53.6398 143.16 53.7187C142.961 53.7975 142.782 53.9171 142.634 54.0697C142.334 54.407 142.18 54.8477 142.205 55.2969V59.1345C142.21 59.1753 142.205 59.2167 142.192 59.2556C142.178 59.2945 142.156 59.3298 142.127 59.3589C142.098 59.388 142.062 59.4101 142.023 59.4234C141.984 59.4368 141.942 59.4411 141.901 59.4361H140.196C139.997 59.4361 139.903 59.3321 139.903 59.1345V54.2361C139.915 54.1526 139.908 54.0675 139.881 53.9875C139.854 53.9075 139.809 53.8347 139.749 53.7751C139.689 53.7155 139.616 53.6707 139.536 53.6442C139.455 53.6176 139.37 53.6102 139.286 53.6225H138.94C138.71 53.6225 138.595 53.5393 138.595 53.3729V52.1457C138.59 52.0697 138.611 51.9942 138.654 51.9318C138.698 51.8693 138.762 51.8237 138.836 51.8025C139.198 51.6717 139.581 51.6082 139.966 51.6153C140.335 51.584 140.706 51.6572 141.036 51.8265C141.365 51.9958 141.64 52.2543 141.828 52.5721C142.181 52.2395 142.599 51.9829 143.056 51.8183C143.514 51.6536 144 51.5845 144.485 51.6153C144.957 51.5924 145.427 51.6803 145.858 51.8718C146.289 52.0634 146.668 52.3531 146.965 52.7177C147.311 52.3436 147.737 52.0506 148.211 51.86C148.685 51.6693 149.196 51.5858 149.706 51.6153C150.163 51.594 150.619 51.6672 151.046 51.8301C151.473 51.993 151.861 52.2421 152.186 52.5617C152.504 52.895 152.75 53.289 152.91 53.7198C153.07 54.1507 153.141 54.6094 153.117 55.0681V57.0753C153.117 57.4705 153.295 57.6681 153.63 57.6681C153.792 57.6756 153.954 57.658 154.111 57.6161C154.327 57.6161 154.442 57.6993 154.456 57.8657L154.55 59.1657Z" fill="white" fill-opacity="0.45"/>
<path id="Vector_10" d="M31.8684 50.5128C32.6403 47.4288 34.4279 44.6902 36.9467 42.7331C39.4655 40.7759 42.5706 39.7126 45.7677 39.7126C48.9647 39.7126 52.0698 40.7759 54.5886 42.7331C57.1074 44.6902 58.895 47.4288 59.6669 50.5128H58.4114C56.2935 50.4818 54.219 51.1109 52.4793 52.312C52.3789 52.3842 52.274 52.4502 52.1654 52.5096H52.0189C51.9103 52.4502 51.8055 52.3842 51.7051 52.312C49.9499 51.1387 47.8828 50.5121 45.7677 50.5121C43.6526 50.5121 41.5855 51.1387 39.8303 52.312C39.7299 52.3842 39.625 52.4502 39.5164 52.5096H39.3699C39.2613 52.4502 39.1565 52.3842 39.0561 52.312C37.3163 51.1109 35.2418 50.4818 33.1239 50.5128H31.8684ZM56.1516 57.0336C56.7961 56.5346 57.5948 56.2736 58.4114 56.2952H60.0959V52.9568H58.4114C56.9731 52.9395 55.5676 53.3845 54.4044 54.2256C53.7497 54.7053 52.9578 54.9641 52.1445 54.9641C51.3312 54.9641 50.5392 54.7053 49.8846 54.2256C48.6918 53.4002 47.2733 52.9577 45.82 52.9577C44.3666 52.9577 42.9481 53.4002 41.7553 54.2256C41.1007 54.7053 40.3088 54.9641 39.4955 54.9641C38.6822 54.9641 37.8902 54.7053 37.2356 54.2256C36.058 53.3737 34.6324 52.9281 33.1762 52.9568H31.4395V56.2952H33.1239C33.9405 56.2736 34.7393 56.5346 35.3838 57.0336C36.5744 57.8595 37.9913 58.3023 39.4432 58.3023C40.895 58.3023 42.3119 57.8595 43.5026 57.0336C44.1479 56.5362 44.9461 56.2754 45.7624 56.2952C46.5793 56.2719 47.3786 56.5331 48.0223 57.0336C49.2151 57.8589 50.6336 58.3014 52.0869 58.3014C53.5403 58.3014 54.9588 57.8589 56.1516 57.0336ZM56.1516 63.0032C56.7961 62.5042 57.5948 62.2432 58.4114 62.2648H60.0959V58.9264H58.4114C56.9731 58.9091 55.5676 59.3541 54.4044 60.1952C53.7497 60.6749 52.9578 60.9337 52.1445 60.9337C51.3312 60.9337 50.5392 60.6749 49.8846 60.1952C48.6918 59.3698 47.2733 58.9273 45.82 58.9273C44.3666 58.9273 42.9481 59.3698 41.7553 60.1952C41.1007 60.6749 40.3088 60.9337 39.4955 60.9337C38.6822 60.9337 37.8902 60.6749 37.2356 60.1952C36.058 59.3433 34.6324 58.8977 33.1762 58.9264H31.4395V62.2648H33.1239C33.9405 62.2432 34.7393 62.5042 35.3838 63.0032C36.5744 63.8291 37.9913 64.2719 39.4432 64.2719C40.895 64.2719 42.3119 63.8291 43.5026 63.0032C44.1479 62.5058 44.9461 62.245 45.7624 62.2648C46.5793 62.2415 47.3786 62.5027 48.0223 63.0032C49.2151 63.8285 50.6336 64.271 52.0869 64.271C53.5403 64.271 54.9588 63.8285 56.1516 63.0032Z" fill="white" fill-opacity="0.45"/>
</g>
</svg>
