<svg width="187" height="106" viewBox="0 0 187 106" fill="none" xmlns="http://www.w3.org/2000/svg">
<g id="Logo">
<path id="Union" fill-rule="evenodd" clip-rule="evenodd" d="M39.3923 37.5239V42.0289C36.505 42.0289 33.7359 43.1848 31.6942 45.2423C29.6525 47.2997 28.5055 50.0902 28.5055 52.9999C28.5055 55.9096 29.6525 58.7001 31.6942 60.7576C33.7359 62.815 36.505 63.9709 39.3923 63.9709V68.4759H25.2974V37.5239H39.3923ZM39.3923 63.9709L39.3923 42.0289C42.2796 42.0289 45.0487 43.1848 47.0904 45.2423C49.132 47.2997 50.279 50.0902 50.279 52.9999C50.279 55.9096 49.132 58.7001 47.0904 60.7576C45.0487 62.8151 42.2796 63.9709 39.3923 63.9709ZM61.3447 44.7849H58.1891V60.1019H61.3447V44.7849ZM64.0447 51.7599C63.4365 52.6757 63.1118 53.7529 63.1118 54.8549C63.1019 55.5858 63.237 56.3112 63.5091 56.9888C63.7811 57.6664 64.1847 58.2824 64.6961 58.8007C65.2075 59.319 65.8165 59.7292 66.4873 60.0073C67.1581 60.2853 67.8772 60.4256 68.6025 60.4199C69.696 60.4262 70.7668 60.1052 71.6791 59.4975C72.5913 58.8899 73.304 58.023 73.7268 57.0067C74.1497 55.9904 74.2635 54.8704 74.054 53.7888C73.8445 52.7072 73.3211 51.7127 72.5501 50.9312C71.779 50.1498 70.7951 49.6166 69.723 49.3993C68.651 49.1819 67.539 49.2903 66.5281 49.7105C65.5172 50.1308 64.6529 50.844 64.0447 51.7599ZM70.5873 53.53C70.8582 53.9189 71.0094 54.3798 71.0218 54.8549H71.0007C71.0182 55.1781 70.9692 55.5014 70.857 55.8046C70.7449 56.1079 70.5718 56.3845 70.3487 56.6173C70.1256 56.8501 69.8572 57.034 69.5604 57.1576C69.2635 57.2811 68.9446 57.3416 68.6235 57.3353C68.1519 57.3351 67.6908 57.1948 67.2979 56.932C66.905 56.6691 66.5977 56.2954 66.4145 55.8575C66.2313 55.4195 66.1802 54.9369 66.2678 54.4699C66.3553 54.0029 66.5775 53.5723 66.9067 53.2319C67.2358 52.8915 67.6572 52.6565 68.1182 52.5561C68.5791 52.4558 69.0592 52.4947 69.4984 52.6679C69.9376 52.8411 70.3163 53.141 70.5873 53.53ZM86.5789 49.6079V59.5825C86.5789 63.1017 83.844 64.5963 81.0776 64.5963C80.1019 64.677 79.1231 64.4816 78.2516 64.0321C77.38 63.5827 76.6502 62.897 76.1444 62.0523L78.8056 60.5047C79.0213 60.9428 79.3643 61.3043 79.789 61.541C80.2137 61.7778 80.6999 61.8784 81.1828 61.8297C81.4905 61.8679 81.8027 61.8371 82.0971 61.7395C82.3916 61.6419 82.661 61.48 82.8861 61.2653C83.1113 61.0506 83.2865 60.7884 83.3994 60.4975C83.5122 60.2066 83.5599 59.8941 83.539 59.5825V58.6179C83.1718 59.0665 82.7058 59.4228 82.1782 59.6583C81.6505 59.8938 81.0756 60.0021 80.4991 59.9747C79.1043 59.9747 77.7665 59.4163 76.7802 58.4223C75.7939 57.4284 75.2398 56.0803 75.2398 54.6747C75.2398 53.269 75.7939 51.9209 76.7802 50.927C77.7665 49.9331 79.1043 49.3747 80.4991 49.3747C81.0756 49.3472 81.6505 49.4555 82.1782 49.691C82.7058 49.9266 83.1718 50.2828 83.539 50.7315V49.6715L86.5789 49.6079ZM83.539 54.6429C83.56 54.1357 83.4299 53.6339 83.1656 53.2018C82.9013 52.7697 82.5148 52.4272 82.0557 52.2183C81.5967 52.0094 81.0861 51.9437 80.5897 52.0295C80.0933 52.1154 79.6337 52.3489 79.27 52.7001C78.9064 53.0513 78.6553 53.5041 78.549 54.0003C78.4428 54.4964 78.4863 55.0133 78.6739 55.4843C78.8614 55.9554 79.1846 56.3591 79.6017 56.6436C80.0188 56.9282 80.5108 57.0804 81.0145 57.0809C81.3432 57.1047 81.6732 57.0588 81.9831 56.9462C82.2931 56.8336 82.5762 56.6566 82.8141 56.4269C83.052 56.1971 83.2394 55.9196 83.3643 55.6123C83.4892 55.305 83.5487 54.9748 83.539 54.6429ZM89.2879 51.762C88.6806 52.6774 88.3564 53.7537 88.3564 54.8549C88.348 55.5871 88.4847 56.3137 88.7586 56.992C89.0325 57.6704 89.438 58.2868 89.9513 58.8051C90.4647 59.3234 91.0756 59.7332 91.7482 60.0105C92.4208 60.2878 93.1415 60.427 93.8682 60.4199C94.9608 60.4219 96.0296 60.0973 96.9391 59.4871C97.8486 58.8769 98.558 58.0085 98.9776 56.9918C99.3972 55.9752 99.508 54.8559 99.2962 53.7757C99.0843 52.6955 98.5592 51.7029 97.7873 50.9236C97.0154 50.1442 96.0314 49.6132 94.9599 49.3976C93.8884 49.182 92.7775 49.2916 91.7679 49.7125C90.7582 50.1333 89.8951 50.8466 89.2879 51.762ZM95.8312 53.5288C96.1026 53.918 96.254 54.3793 96.2664 54.8549H96.2559C96.2733 55.178 96.2244 55.5013 96.1122 55.8046C96 56.1078 95.827 56.3845 95.6039 56.6173C95.3808 56.8501 95.1124 57.034 94.8156 57.1575C94.5187 57.2811 94.1998 57.3416 93.8787 57.3353C93.4067 57.3372 92.9446 57.1987 92.5503 56.9371C92.156 56.6755 91.8471 56.3025 91.6623 55.8648C91.4774 55.427 91.4249 54.9441 91.5113 54.4764C91.5976 54.0087 91.819 53.5771 92.1477 53.2357C92.4763 52.8942 92.8977 52.6581 93.359 52.557C93.8202 52.4558 94.3008 52.494 94.7406 52.6669C95.1804 52.8398 95.5598 53.1396 95.8312 53.5288ZM100.842 46.7989C100.842 46.4257 100.952 46.0609 101.158 45.7506C101.363 45.4403 101.656 45.1985 101.998 45.0557C102.34 44.9129 102.716 44.8755 103.08 44.9483C103.443 45.0211 103.776 45.2008 104.038 45.4647C104.3 45.7286 104.479 46.0647 104.551 46.4308C104.623 46.7968 104.586 47.1761 104.444 47.5209C104.302 47.8657 104.063 48.1603 103.755 48.3677C103.447 48.575 103.085 48.6857 102.714 48.6857C102.22 48.6801 101.746 48.4796 101.397 48.1269C101.047 47.7743 100.848 47.2976 100.842 46.7989ZM101.147 49.6079H104.303V60.1019H101.147V49.6079ZM117.509 56.9089C117.742 56.2509 117.844 55.5528 117.809 54.8549C117.84 54.1596 117.735 53.4649 117.499 52.8106C117.264 52.1562 116.903 51.5549 116.437 51.0411C115.971 50.5273 115.409 50.111 114.784 49.816C114.158 49.521 113.481 49.353 112.791 49.3217C112.204 49.2802 111.615 49.3731 111.069 49.5933C110.522 49.8136 110.032 50.1556 109.636 50.5937V49.6079H106.48V64.3207H109.636V59.1373C110.032 59.5767 110.521 59.9203 111.068 60.1424C111.614 60.3644 112.203 60.4593 112.791 60.4199C113.484 60.3887 114.164 60.2197 114.791 59.9227C115.419 59.6257 115.982 59.2065 116.449 58.6893C116.915 58.172 117.275 57.567 117.509 56.9089ZM114.204 53.4818C114.484 53.8849 114.641 54.3626 114.653 54.8549C114.677 55.1917 114.63 55.5297 114.515 55.847C114.401 56.1642 114.221 56.4534 113.987 56.6956C113.754 56.9378 113.472 57.1275 113.161 57.2524C112.85 57.3773 112.516 57.4344 112.181 57.4201C111.692 57.422 111.214 57.2786 110.806 57.0077C110.398 56.7368 110.078 56.3505 109.887 55.8973C109.696 55.4441 109.642 54.9441 109.731 54.4599C109.821 53.9758 110.05 53.5291 110.391 53.1758C110.731 52.8225 111.167 52.5783 111.645 52.4738C112.123 52.3694 112.62 52.4093 113.075 52.5886C113.53 52.7679 113.923 53.0786 114.204 53.4818ZM127.412 56.9537C127.412 59.3705 125.308 60.3987 123.078 60.3987C122.169 60.4812 121.256 60.2869 120.457 59.841C119.658 59.395 119.01 58.7179 118.597 57.8971L121.311 56.3495C121.419 56.7277 121.652 57.0573 121.972 57.283C122.291 57.5088 122.678 57.617 123.068 57.5897C123.815 57.5897 124.193 57.3565 124.193 56.9325C124.193 56.516 123.528 56.3295 122.676 56.091C121.166 55.6679 119.071 55.0812 119.071 52.7561C119.071 50.4665 120.985 49.3217 123.152 49.3217C123.976 49.2845 124.794 49.4728 125.52 49.8666C126.246 50.2604 126.853 50.845 127.275 51.5583L124.562 52.9999C124.442 52.7264 124.246 52.4938 123.997 52.3302C123.749 52.1665 123.459 52.0788 123.163 52.0777C122.616 52.0777 122.29 52.2897 122.29 52.6607C122.29 53.0935 122.947 53.2693 123.79 53.495C125.302 53.8993 127.412 54.4637 127.412 56.9537ZM138.846 60.1019V49.6079H135.732V55.3849C135.732 56.8265 134.933 57.5049 133.797 57.5049C133.548 57.52 133.298 57.4803 133.066 57.3887C132.833 57.2971 132.623 57.1557 132.45 56.9742C132.277 56.7928 132.145 56.5757 132.063 56.3379C131.982 56.1001 131.952 55.8473 131.977 55.5969V49.6079H128.822V56.0739C128.822 58.9041 130.62 60.4199 132.724 60.4199C133.285 60.452 133.846 60.3508 134.361 60.1243C134.877 59.8978 135.332 59.5525 135.69 59.1161V60.1019H138.846ZM156.727 53.657V60.1018H153.572V53.9326C153.572 52.8726 153.077 52.2154 152.078 52.2154C151.079 52.2154 150.448 52.9468 150.448 54.187V60.1018H147.292V53.9326C147.292 52.8726 146.798 52.2154 145.799 52.2154C144.799 52.2154 144.168 52.9468 144.168 54.187V60.1018H141.013V49.6078H144.168V50.5724C144.495 50.1463 144.922 49.8088 145.41 49.5904C145.899 49.3721 146.433 49.2797 146.966 49.3216C147.5 49.2936 148.032 49.4059 148.509 49.6475C148.987 49.889 149.394 50.2516 149.69 50.6996C150.037 50.2316 150.496 49.8597 151.024 49.6187C151.552 49.3777 152.132 49.2755 152.709 49.3216C155.171 49.3216 156.727 51.0388 156.727 53.657ZM161.692 47.2123C161.692 48.5002 160.656 49.5443 159.378 49.5443C158.1 49.5443 157.064 48.5002 157.064 47.2123C157.064 45.9243 158.1 44.8802 159.378 44.8802C160.656 44.8802 161.692 45.9243 161.692 47.2123Z" fill="white" fill-opacity="0.45"/>
</g>
</svg>
