<svg width="187" height="105" viewBox="0 0 187 105" fill="none" xmlns="http://www.w3.org/2000/svg">
<g id="Logo">
<path id="Vector" d="M64.7002 46.4731H68.0767V60.1231H64.7002V46.4731ZM69.4231 54.9886C69.4231 51.6076 71.5268 49.5811 74.6824 49.5811C77.838 49.5811 79.9417 51.6076 79.9417 54.9886C79.9417 58.3696 77.9116 60.4171 74.6824 60.4171C71.4532 60.4171 69.4231 58.4431 69.4231 54.9886ZM76.5968 54.9886C76.5968 53.1301 75.871 52.0381 74.7139 52.0381C73.5569 52.0381 72.8416 53.0881 72.8416 54.9886C72.8416 56.8891 73.5569 57.9286 74.7139 57.9286C75.871 57.9286 76.6178 56.8891 76.6178 54.9991L76.5968 54.9886ZM81.2881 60.8266H84.5488C84.6973 61.177 84.9565 61.4693 85.287 61.6589C85.6175 61.8485 86.001 61.9249 86.3791 61.8766C87.6729 61.8766 88.3461 61.1836 88.3461 60.1546V58.2646H88.3566C88.0779 58.8531 87.6274 59.3436 87.0641 59.6716C86.5009 59.9996 85.8513 60.1496 85.201 60.1021C82.7291 60.1021 81.0882 58.2226 81.0882 54.9886C81.0882 51.7546 82.6555 49.7386 85.2957 49.7386C85.9627 49.7029 86.6243 49.8747 87.1895 50.2301C87.7546 50.5855 88.1955 51.1071 88.4512 51.7231H88.3566V49.8226H91.7015V60.0496C91.7015 62.5171 89.5136 64.0606 86.2949 64.0606C83.3707 64.0501 81.4984 62.7166 81.3091 60.8371L81.2881 60.8266ZM88.3566 54.9886C88.3566 53.3401 87.5992 52.3006 86.4001 52.3006C85.201 52.3006 84.4647 53.3506 84.4647 54.9886C84.4647 56.6266 85.1905 57.5926 86.4001 57.5926C87.6098 57.5926 88.3566 56.7001 88.3566 54.9886ZM93.0374 54.9886C93.0374 51.6076 95.1411 49.5811 98.2967 49.5811C101.452 49.5811 103.556 51.6076 103.556 54.9886C103.556 58.3696 101.515 60.4171 98.2967 60.4171C95.078 60.4171 93.0584 58.4431 93.0584 54.9886H93.0374ZM100.211 54.9886C100.211 53.1301 99.4748 52.0381 98.3282 52.0381C97.1817 52.0381 96.4559 53.0881 96.4559 54.9886C96.4559 56.8891 97.1712 57.9286 98.3282 57.9286C99.4853 57.9286 100.232 56.8891 100.232 54.9991L100.211 54.9886ZM104.923 47.3341C104.909 46.9907 104.997 46.6509 105.178 46.3582C105.358 46.0655 105.622 45.8334 105.936 45.6917C106.249 45.5501 106.598 45.5053 106.938 45.5632C107.277 45.6211 107.591 45.779 107.84 46.0167C108.088 46.2543 108.26 46.5608 108.333 46.8967C108.406 47.2326 108.376 47.5825 108.248 47.9014C108.12 48.2204 107.899 48.4938 107.614 48.6865C107.329 48.8791 106.993 48.9823 106.648 48.9826C106.428 48.9882 106.21 48.9501 106.004 48.8705C105.799 48.7909 105.612 48.6715 105.453 48.5191C105.295 48.3667 105.168 48.1844 105.081 47.9828C104.994 47.7812 104.947 47.5642 104.944 47.3446L104.923 47.3341ZM104.923 49.8121H108.342V60.1651H104.976L104.923 49.8121ZM120.638 54.9886C120.638 58.3591 119.124 60.3121 116.546 60.3121C115.887 60.3527 115.23 60.1902 114.666 59.8466C114.102 59.503 113.657 58.9948 113.391 58.3906H113.328V63.4936H109.951V49.8436H113.307V51.6916H113.37C113.627 51.0755 114.067 50.5534 114.632 50.1964C115.197 49.8394 115.858 49.6649 116.525 49.6966C119.176 49.6756 120.701 51.6181 120.701 54.9991L120.638 54.9886ZM117.199 54.9886C117.199 53.3506 116.431 52.2901 115.242 52.2901C114.054 52.2901 113.307 53.3401 113.296 54.9886C113.286 56.6371 114.054 57.6766 115.242 57.6766C116.431 57.6766 117.262 56.7001 117.262 54.9991L117.199 54.9886ZM126.402 49.5706C129.232 49.5706 130.989 50.9041 131.01 53.0461H127.928C127.928 52.3006 127.307 51.8386 126.381 51.8386C125.456 51.8386 125.014 52.1956 125.014 52.7311C125.014 53.2666 125.403 53.4346 126.182 53.5921L128.348 54.0331C130.452 54.4741 131.294 55.3141 131.294 56.8786C131.294 58.9786 129.348 60.4066 126.455 60.4066C123.562 60.4066 121.68 59.0206 121.543 56.9101H124.814C124.909 57.6766 125.519 58.1281 126.508 58.1281C127.496 58.1281 127.959 57.8131 127.959 57.2566C127.959 56.7001 127.644 56.6056 126.834 56.4376L124.877 56.0281C122.847 55.5976 121.785 54.5371 121.785 52.9516C121.848 50.8936 123.615 49.5811 126.466 49.5811L126.402 49.5706ZM142.601 60.1546H139.33V58.2121H139.267C139.084 58.86 138.685 59.4263 138.136 59.8176C137.587 60.2089 136.921 60.4018 136.248 60.3646C135.739 60.3811 135.233 60.2901 134.763 60.0976C134.292 59.9051 133.867 59.6154 133.517 59.2475C133.166 58.8797 132.897 58.442 132.728 57.9631C132.559 57.4843 132.493 56.9751 132.535 56.4691V49.8226H135.911V55.7446C135.911 56.9626 136.553 57.6241 137.605 57.6241C137.852 57.6222 138.095 57.5675 138.319 57.4637C138.543 57.3599 138.742 57.2093 138.902 57.0222C139.063 56.8351 139.181 56.6158 139.249 56.3791C139.318 56.1424 139.334 55.8938 139.298 55.6501V49.8226H142.664L142.601 60.1546ZM144.231 49.8121H147.513V51.8071H147.587C147.768 51.168 148.157 50.6069 148.692 50.2118C149.226 49.8166 149.877 49.6095 150.543 49.6231C151.211 49.5651 151.876 49.7579 152.409 50.1637C152.942 50.5696 153.304 51.1593 153.425 51.8176H153.572C153.782 51.1558 154.206 50.5819 154.776 50.185C155.347 49.7882 156.033 49.5906 156.728 49.6231C157.189 49.6055 157.65 49.6855 158.078 49.8578C158.507 50.0301 158.894 50.2908 159.215 50.6228C159.536 50.9549 159.783 51.3508 159.939 51.7847C160.096 52.2186 160.16 52.6806 160.125 53.1406V60.1651H156.728V54.0016C156.728 52.9516 156.233 52.3636 155.276 52.3636C155.064 52.3601 154.853 52.4025 154.659 52.4878C154.465 52.5732 154.291 52.6995 154.15 52.858C154.009 53.0166 153.904 53.2037 153.843 53.4065C153.781 53.6094 153.764 53.8231 153.793 54.0331V60.1651H150.574V53.9701C150.574 52.9201 150.059 52.3636 149.133 52.3636C148.919 52.3619 148.706 52.406 148.51 52.493C148.314 52.58 148.139 52.7078 147.997 52.8679C147.854 53.028 147.748 53.2167 147.684 53.4213C147.621 53.6259 147.602 53.8416 147.629 54.0541V60.1651H144.253L144.231 49.8121Z" fill="white" fill-opacity="0.45"/>
<path id="Vector_2" d="M58.0204 47.3655C58.0205 45.2757 57.3884 43.2345 56.2067 41.5094C55.025 39.7843 53.3489 38.4557 51.398 37.6976C49.4471 36.9395 47.3123 36.7873 45.2732 37.2608C43.2341 37.7343 41.3859 38.8116 39.9705 40.3515H26.8433V68.0085H54.5598V55.083C55.6477 54.1117 56.5182 52.9223 57.1145 51.5925C57.7107 50.2628 58.0195 48.8224 58.0204 47.3655ZM52.6875 47.3655C52.6896 48.3669 52.394 49.3464 51.8382 50.1801C51.2824 51.0137 50.4913 51.664 49.565 52.0487C48.6388 52.4334 47.6191 52.5351 46.6349 52.341C45.6507 52.1469 44.7464 51.6657 44.0363 50.9584C43.3262 50.251 42.8422 49.3492 42.6458 48.3672C42.4493 47.3852 42.5491 46.367 42.9325 45.4416C43.3159 44.5163 43.9657 43.7252 44.7997 43.1686C45.6337 42.6121 46.6143 42.315 47.6175 42.315C48.9604 42.315 50.2483 42.8467 51.1988 43.7936C52.1493 44.7404 52.6847 46.025 52.6875 47.3655ZM49.2269 62.685H32.1762V45.675H37.3724C37.272 46.233 37.2192 46.7985 37.2146 47.3655C37.2174 50.1188 38.3143 52.7585 40.2646 54.7054C42.215 56.6522 44.8594 57.7472 47.6175 57.75C48.1568 57.7471 48.6949 57.7015 49.2269 57.6135V62.685Z" fill="white" fill-opacity="0.45"/>
</g>
</svg>
