<svg width="24" height="24" viewBox="0 0 24 24" fill="none" xmlns="http://www.w3.org/2000/svg">
<g id="headphones">
<g id="Group">
<g id="Group_2">
<path id="Vector" d="M12 0C6.18445 0 1.45312 4.73133 1.45312 10.5469C1.45312 11.1914 1.45312 16.1769 1.45312 16.2656C1.45312 17.4287 2.39939 18.375 3.5625 18.375H4.38656C4.67681 19.1933 5.45836 19.7812 6.375 19.7812C7.53811 19.7812 8.48438 18.835 8.48438 17.6719V11.9531C8.48438 10.79 7.53811 9.84375 6.375 9.84375C5.45836 9.84375 4.67681 10.4317 4.38656 11.25H3.5625C3.31598 11.25 3.07945 11.2929 2.85938 11.3709V10.5469C2.85938 5.50673 6.95986 1.40625 12 1.40625C17.0401 1.40625 21.1406 5.50673 21.1406 10.5469V11.3709C20.9205 11.2929 20.684 11.25 20.4375 11.25H19.6134C19.3232 10.4317 18.5416 9.84375 17.625 9.84375C16.4619 9.84375 15.5156 10.79 15.5156 11.9531V17.6719C15.5156 18.835 16.4619 19.7812 17.625 19.7812C17.8379 19.7812 18.0434 19.7493 18.2372 19.6904C17.9742 20.5558 17.169 21.1875 16.2188 21.1875H13.9884C13.6982 20.3692 12.9166 19.7812 12 19.7812C10.8369 19.7812 9.89062 20.7275 9.89062 21.8906C9.89062 23.0537 10.8369 24 12 24C12.9166 24 13.6982 23.4121 13.9884 22.5938H16.2188C18.1573 22.5938 19.7344 21.0166 19.7344 19.0781V18.375H20.4375C21.6006 18.375 22.5469 17.4287 22.5469 16.2656C22.5469 16.1782 22.5469 11.1908 22.5469 10.5469C22.5469 4.73133 17.8155 0 12 0ZM5.67188 11.9531C5.67188 11.5654 5.9873 11.25 6.375 11.25C6.7627 11.25 7.07812 11.5654 7.07812 11.9531V17.6719C7.07812 18.0596 6.7627 18.375 6.375 18.375C5.9873 18.375 5.67188 18.0596 5.67188 17.6719V11.9531ZM3.5625 12.6562H4.26562V16.9688H3.5625C3.1748 16.9688 2.85938 16.6533 2.85938 16.2656V13.3594C2.85938 12.9717 3.1748 12.6562 3.5625 12.6562ZM12 22.5938C11.6123 22.5938 11.2969 22.2783 11.2969 21.8906C11.2969 21.5029 11.6123 21.1875 12 21.1875C12.3877 21.1875 12.7031 21.5029 12.7031 21.8906C12.7031 22.2783 12.3877 22.5938 12 22.5938ZM18.3281 17.6719C18.3281 18.0596 18.0127 18.375 17.625 18.375C17.2373 18.375 16.9219 18.0596 16.9219 17.6719V11.9531C16.9219 11.5654 17.2373 11.25 17.625 11.25C18.0127 11.25 18.3281 11.5654 18.3281 11.9531V17.6719ZM21.1406 16.2656C21.1406 16.6533 20.8252 16.9688 20.4375 16.9688H19.7344V12.6562H20.4375C20.8252 12.6562 21.1406 12.9717 21.1406 13.3594V16.2656Z" fill="#FFA155"/>
</g>
</g>
</g>
</svg>
